<svg viewBox="0 0 14 14" fill="none" xmlns="http://www.w3.org/2000/svg">
    <path d="M1.40039 9.40039L1.04684 9.04684L0.900391 9.19328V9.40039H1.40039ZM9.40039 1.40039L9.75394 1.04684C9.55868 0.851575 9.2421 0.851575 9.04684 1.04684L9.40039 1.40039ZM12.6004 4.60039L12.9539 4.95394C13.1492 4.75868 13.1492 4.4421 12.9539 4.24684L12.6004 4.60039ZM4.60039 12.6004V13.1004H4.8075L4.95394 12.9539L4.60039 12.6004ZM1.40039 12.6004H0.900391C0.900391 12.8765 1.12425 13.1004 1.40039 13.1004V12.6004ZM1.75394 9.75394L9.75394 1.75394L9.04684 1.04684L1.04684 9.04684L1.75394 9.75394ZM9.04684 1.75394L12.2468 4.95394L12.9539 4.24684L9.75394 1.04684L9.04684 1.75394ZM12.2468 4.24684L4.24684 12.2468L4.95394 12.9539L12.9539 4.95394L12.2468 4.24684ZM4.60039 12.1004H1.40039V13.1004H4.60039V12.1004ZM1.90039 12.6004V9.40039H0.900391V12.6004H1.90039Z"
          fill="currentColor"/>
</svg>
