<svg width="20" height="20" viewBox="0 0 20 20" fill="none" xmlns="http://www.w3.org/2000/svg">
<path fill-rule="evenodd" clip-rule="evenodd" d="M15.8337 8.33333C15.8337 10.5387 13.1003 14.0201 11.3756 15.9972C10.6398 16.8408 9.36084 16.8408 8.625 15.9972C6.9004 14.0201 4.16699 10.5387 4.16699 8.33333C4.16699 5.11167 6.77866 2.5 10.0003 2.5C13.222 2.5 15.8337 5.11167 15.8337 8.33333ZM10.0003 10.8333C11.381 10.8333 12.5003 9.71405 12.5003 8.33333C12.5003 6.95262 11.381 5.83333 10.0003 5.83333C8.61961 5.83333 7.50033 6.95262 7.50033 8.33333C7.50033 9.71405 8.61961 10.8333 10.0003 10.8333Z" stroke="#09090B" stroke-linecap="round" stroke-linejoin="round"/>
</svg>
